<svg width="800" height="200" viewBox="0 0 800 200" fill="none" xmlns="http://www.w3.org/2000/svg">
<rect width="800" height="200" fill="white"></rect>
<path d="M324.737 57.6841C303.807 57.8337 286.688 81.0952 286.688 101.385C286.688 122.736 299.237 148.781 324.737 148.696C350.236 148.612 363.471 120.572 363.471 101.385C363.471 80.1905 345.666 57.5345 324.737 57.6841ZM324.737 58.4799C342.254 58.4799 346.98 77.8262 346.98 101.385C346.98 132.469 341.279 147.805 324.737 147.776C308.194 147.746 302.813 135.195 302.813 101.385C302.813 80.205 307.219 58.4799 324.737 58.4799Z" fill="black"></path>
<path d="M370.368 101.958C370.274 78.8722 388.751 58.4223 404.392 57.4077C410.041 57.0075 417.304 59.5947 421.544 61.4377C424.622 62.776 430.907 60.8389 432.023 57.2849H432.632V88.7326H432.023C432.023 87.3919 426.199 58.1984 404.392 58.1984C388.284 58.1984 386.728 86.5215 386.728 101.958C386.728 117.395 387.197 147.955 405.994 147.955C415.1 147.955 421.84 143.971 423.587 135.911V111.406H415.944V110.362H445.57V111.406H438.263V147.233H437.668C437.668 147.233 436.48 142.064 430.452 142.081C422.748 142.103 415.482 148.796 406.625 148.715C383.201 148.499 370.461 125.044 370.368 101.958Z" fill="black"></path>
<path d="M229.225 60.7813H220V59.7444H252.314V60.7813H244.208L267.297 123.485C274.517 101.256 280.111 84.825 287.638 60.7813H279.619V59.7444H296.681V60.7813H288.911L260.848 148.265L229.225 60.7813Z" fill="black"></path>
<path d="M450.098 126.848L449.952 60.6816H441.172V59.6904H473.521V60.6816H464.746L464.94 133.229C466.883 141.537 470.337 147.84 482.137 147.934C493.937 148.028 501.959 140.953 504.94 131.286V60.6816H494.896L494.895 59.7196H577.108L577.279 91.482H576.489C574.964 70.9742 567.051 63.2238 553.212 60.9627C548.45 60.1846 543.454 60.7614 537.138 60.7123V101.25C542.638 101.674 548.496 101.327 552.444 97.936C556.034 94.8526 557.049 87.7287 557.313 84.8346H558.008V120.13H557.256C557.038 120.13 556.75 111.273 552.444 107.07C548.111 102.841 542.592 101.801 537.138 102.809V146.111C544.842 146.111 550.982 146.764 556.315 145.302C572.524 140.858 578.231 127.182 578.187 113.467H579.088V147.136H514.603V146.111H521.894V60.6816H506.141V131.286C504.355 138.041 497.829 149.217 481.105 149.141C465.555 149.07 450.132 142.059 450.098 126.848Z" fill="black"></path>
</svg>
